<svg width="20" height="21" viewBox="0 0 20 21" fill="none" xmlns="http://www.w3.org/2000/svg">
<g clip-path="url(#clip0_580_3474)">
<path fill-rule="evenodd" clip-rule="evenodd" d="M7.33241 0C6.22684 0.000835882 5.33208 0.918634 5.3329 2.04958C5.33208 3.18053 6.22766 4.09833 7.33323 4.09916H9.33356V2.05042C9.33437 0.91947 8.4388 0.00167176 7.33241 0C7.33323 0 7.33323 0 7.33241 0V0ZM7.33241 5.46667H1.99984C0.894268 5.4675 -0.00130318 6.3853 -0.000486048 7.51625C-0.0021203 8.6472 0.893451 9.56499 1.99902 9.56667H7.33241C8.43798 9.56583 9.33355 8.64803 9.33274 7.51708C9.33355 6.3853 8.43798 5.4675 7.33241 5.46667Z" fill="#36C5F0"/>
<path fill-rule="evenodd" clip-rule="evenodd" d="M19.9998 7.51624C20.0006 6.38529 19.105 5.46749 17.9994 5.46666C16.8938 5.46749 15.9983 6.38529 15.9991 7.51624V9.56666H17.9994C19.105 9.56582 20.0006 8.64803 19.9998 7.51624ZM14.6664 7.51624V2.04957C14.6672 0.919462 13.7724 0.00166413 12.6668 -7.62939e-06C11.5613 0.000828252 10.6657 0.918626 10.6665 2.04957V7.51624C10.6649 8.64719 11.5604 9.56499 12.666 9.56666C13.7716 9.56582 14.6672 8.64803 14.6664 7.51624Z" fill="#2EB67D"/>
<path fill-rule="evenodd" clip-rule="evenodd" d="M12.6659 20.5C13.7714 20.4992 14.667 19.5814 14.6662 18.4504C14.667 17.3195 13.7714 16.4017 12.6659 16.4008H10.6655V18.4504C10.6647 19.5805 11.5603 20.4983 12.6659 20.5ZM12.6659 15.0325H17.9992C19.1048 15.0317 20.0004 14.1139 19.9996 12.9829C20.0012 11.852 19.1056 10.9342 18.0001 10.9325H12.6667C11.5611 10.9333 10.6655 11.8511 10.6663 12.9821C10.6655 14.1139 11.5603 15.0317 12.6659 15.0325Z" fill="#ECB22E"/>
<path fill-rule="evenodd" clip-rule="evenodd" d="M-0.000487723 12.9829C-0.00130485 14.1138 0.894266 15.0316 1.99984 15.0325C3.10541 15.0316 4.00098 14.1138 4.00017 12.9829V10.9333H1.99984C0.894266 10.9341 -0.00130485 11.8519 -0.000487723 12.9829ZM5.3329 12.9829V18.4495C5.33127 19.5805 6.22684 20.4983 7.33241 20.5C8.43798 20.4991 9.33355 19.5813 9.33274 18.4504V12.9845C9.33437 11.8536 8.4388 10.9358 7.33323 10.9341C6.22684 10.9341 5.33208 11.8519 5.3329 12.9829C5.3329 12.9837 5.3329 12.9829 5.3329 12.9829Z" fill="#E01E5A"/>
</g>
<defs>
<clipPath id="clip0_580_3474">
<rect width="20" height="20.5" fill="white"/>
</clipPath>
</defs>
</svg>
