<svg width="20" height="21" viewBox="0 0 20 21" fill="none" xmlns="http://www.w3.org/2000/svg">
<g clip-path="url(#clip0_580_3434)">
<path d="M19.7596 9.9198L10.8968 0.990672L10.038 0.125458L3.36637 6.84708L0.315567 9.9198C0.163181 10.0741 0.0776367 10.2829 0.0776367 10.5006C0.0776367 10.7183 0.163181 10.9271 0.315567 11.0814L6.41074 17.2222L10.038 20.8758L16.7088 14.1542L16.8127 14.0504L19.7596 11.0861C19.836 11.0097 19.8966 10.9189 19.938 10.8188C19.9793 10.7187 20.0006 10.6113 20.0006 10.5029C20.0006 10.3945 19.9793 10.2872 19.938 10.1871C19.8966 10.087 19.836 9.99617 19.7596 9.9198ZM10.038 13.5687L6.99276 10.5006L10.038 7.43254L13.0824 10.5006L10.038 13.5687Z" fill="#2684FF"/>
<path d="M10.0375 7.43189C9.07978 6.4672 8.53988 5.15987 8.53575 3.79544C8.53161 2.43102 9.06358 1.12039 10.0155 0.149826L3.35205 6.86033L6.97844 10.5139L10.0375 7.43189Z" fill="url(#paint0_linear_580_3434)"/>
<path d="M13.0902 10.4916L10.0376 13.568C10.999 14.5369 11.539 15.8507 11.539 17.2207C11.539 18.5906 10.999 19.9044 10.0376 20.8733L16.7194 14.1452L13.0902 10.4916Z" fill="url(#paint1_linear_580_3434)"/>
</g>
<defs>
<linearGradient id="paint0_linear_580_3434" x1="9.49228" y1="4.32768" x2="5.20802" y2="8.57919" gradientUnits="userSpaceOnUse">
<stop offset="0.18" stop-color="#0052CC"/>
<stop offset="1" stop-color="#2684FF"/>
</linearGradient>
<linearGradient id="paint1_linear_580_3434" x1="776.104" y1="900.925" x2="1212.24" y2="1181.57" gradientUnits="userSpaceOnUse">
<stop offset="0.18" stop-color="#0052CC"/>
<stop offset="1" stop-color="#2684FF"/>
</linearGradient>
<clipPath id="clip0_580_3434">
<rect width="20" height="21" fill="white"/>
</clipPath>
</defs>
</svg>
